<svg width="24" height="24" viewBox="0 0 24 24" fill="none" xmlns="http://www.w3.org/2000/svg">
  <rect width="24" height="24" rx="4" fill="#000000"/>
  <path d="M17.05 20.28c-.98.95-2.05.88-3.08.4-1.09-.5-2.08-.96-3.24-1.44-1.88-.67-2.94-1.04-4.24-1.78C5.24 16.84 4 15.5 4 13.1c0-2.4 1.24-3.74 3.49-5.36 1.3-.74 2.36-1.11 4.24-1.78 1.16-.48 2.15-.94 3.24-1.44 1.03-.48 2.1-.55 3.08.4.98.95.9 2.02.4 3.05-.5 1.02-1 2.01-1.48 3.17-.67 1.88-1.04 2.94-1.78 4.24C18.24 19.18 16.9 20.42 14.5 20.42c-2.4 0-3.74-1.24-5.36-3.49l3.49-3.49c1.24 1.88 1.11 2.36 1.78 4.24.48 1.16.94 2.15 1.44 3.24.48 1.03.55 2.1-.4 3.08z" fill="white"/>
</svg>

